HIERARCHY
ROOT Hips
{
  OFFSET 5.72205e-005 65.662 3.42586
  CHANNELS 6 Xposition Yposition Zposition Zrotation Xrotation Yrotation
  JOINT Chest
  {
    OFFSET 0 8.7983 -4.7612
    CHANNELS 6 Xposition Yposition Zposition Zrotation Xrotation Yrotation
    JOINT Chest2
    {
      OFFSET 0 8.0291 0.4195
      CHANNELS 6 Xposition Yposition Zposition Zrotation Xrotation Yrotation
      JOINT Chest3
      {
        OFFSET 0 9.9351 -2.2114
        CHANNELS 6 Xposition Yposition Zposition Zrotation Xrotation Yrotation
        JOINT Neck
        {
          OFFSET 0 22.3885 -0.4656
          CHANNELS 6 Xposition Yposition Zposition Zrotation Xrotation Yrotation
          JOINT Head
          {
            OFFSET -0.0001 12.643 3.4389
            CHANNELS 6 Xposition Yposition Zposition Zrotation Xrotation Yrotation
            End Site
            {
              OFFSET 0.0001 17.6655 0.5274
            }
          }
        }
        JOINT LeftCollar
        {
          OFFSET 2.2603 21.606 7.4023
          CHANNELS 6 Xposition Yposition Zposition Zrotation Xrotation Yrotation
          JOINT LeftShoulder
          {
            OFFSET 13.5163 -1.1332 -5.0146
            CHANNELS 6 Xposition Yposition Zposition Zrotation Xrotation Yrotation
            JOINT LeftElbow
            {
              OFFSET -0.0995 -28.05 -0.2431
              CHANNELS 6 Xposition Yposition Zposition Zrotation Xrotation Yrotation
              JOINT LeftWrist
              {
                OFFSET 0.0679 -23.3996 -0.1402
                CHANNELS 6 Xposition Yposition Zposition Zrotation Xrotation Yrotation
                JOINT LeftFinger1
                {
                  OFFSET 0.7932 -9.069 2.5189
                  CHANNELS 6 Xposition Yposition Zposition Zrotation Xrotation Yrotation
                  JOINT LeftFinger11
                  {
                    OFFSET -0.8272 -3.3923 0.5977
                    CHANNELS 6 Xposition Yposition Zposition Zrotation Xrotation Yrotation
                    JOINT LeftFinger12
                    {
                      OFFSET -0.5649 -2.3158 0.4082
                      CHANNELS 6 Xposition Yposition Zposition Zrotation Xrotation Yrotation
                      End Site
                      {
                        OFFSET -0.4919 -1.6479 0.2673
                      }
                    }
                  }
                }
                JOINT LeftFinger2
                {
                  OFFSET 0.9159 -9.2044 0.2193
                  CHANNELS 6 Xposition Yposition Zposition Zrotation Xrotation Yrotation
                  JOINT LeftFinger21
                  {
                    OFFSET 0.0117 -4.1944 -0.0248
                    CHANNELS 6 Xposition Yposition Zposition Zrotation Xrotation Yrotation
                    JOINT LeftFinger22
                    {
                      OFFSET 0.0071 -2.3249 -0.0142
                      CHANNELS 6 Xposition Yposition Zposition Zrotation Xrotation Yrotation
                      End Site
                      {
                        OFFSET -0.1475 -2.0882 0.0028
                      }
                    }
                  }
                }
                JOINT LeftFinger3
                {
                  OFFSET 0.6113 -8.7231 -2.0637
                  CHANNELS 6 Xposition Yposition Zposition Zrotation Xrotation Yrotation
                  JOINT LeftFinger31
                  {
                    OFFSET -0.1927 -3.8059 -0.2383
                    CHANNELS 6 Xposition Yposition Zposition Zrotation Xrotation Yrotation
                    JOINT LeftFinger32
                    {
                      OFFSET -0.1091 -2.1688 -0.1362
                      CHANNELS 6 Xposition Yposition Zposition Zrotation Xrotation Yrotation
                      End Site
                      {
                        OFFSET -0.2358 -1.9176 -0.0906
                      }
                    }
                  }
                }
                JOINT LeftFinger4
                {
                  OFFSET -0.6151 -8.0947 -3.5641
                  CHANNELS 6 Xposition Yposition Zposition Zrotation Xrotation Yrotation
                  JOINT LeftFinger41
                  {
                    OFFSET -0.4882 -2.341 -0.6462
                    CHANNELS 6 Xposition Yposition Zposition Zrotation Xrotation Yrotation
                    JOINT LeftFinger42
                    {
                      OFFSET -0.3575 -1.7167 -0.4742
                      CHANNELS 6 Xposition Yposition Zposition Zrotation Xrotation Yrotation
                      End Site
                      {
                        OFFSET -0.4187 -1.5237 -0.3496
                      }
                    }
                  }
                }
                JOINT LeftFinger0
                {
                  OFFSET -1.42 -1.8761 1.4223
                  CHANNELS 6 Xposition Yposition Zposition Zrotation Xrotation Yrotation
                  JOINT LeftFinger01
                  {
                    OFFSET -1.1471 -3.4929 2.6334
                    CHANNELS 6 Xposition Yposition Zposition Zrotation Xrotation Yrotation
                    JOINT LeftFinger02
                    {
                      OFFSET -0.823 -2.3 1.6571
                      CHANNELS 6 Xposition Yposition Zposition Zrotation Xrotation Yrotation
                      End Site
                      {
                        OFFSET -0.5822 -1.6914 1.1582
                      }
                    }
                  }
                }
              }
            }
          }
        }
        JOINT RightCollar
        {
          OFFSET -2.2603 21.606 7.4023
          CHANNELS 6 Xposition Yposition Zposition Zrotation Xrotation Yrotation
          JOINT RightShoulder
          {
            OFFSET -13.5187 -1.1334 -5.0155
            CHANNELS 6 Xposition Yposition Zposition Zrotation Xrotation Yrotation
            JOINT RightElbow
            {
              OFFSET 0.0994 -28.0499 -0.2431
              CHANNELS 6 Xposition Yposition Zposition Zrotation Xrotation Yrotation
              JOINT RightWrist
              {
                OFFSET -0.0679 -23.3996 -0.1402
                CHANNELS 6 Xposition Yposition Zposition Zrotation Xrotation Yrotation
                JOINT RightFinger1
                {
                  OFFSET -0.7932 -9.0691 2.5189
                  CHANNELS 6 Xposition Yposition Zposition Zrotation Xrotation Yrotation
                  JOINT RightFinger11
                  {
                    OFFSET 0.8272 -3.3923 0.5977
                    CHANNELS 6 Xposition Yposition Zposition Zrotation Xrotation Yrotation
                    JOINT RightFinger12
                    {
                      OFFSET 0.565 -2.3158 0.4082
                      CHANNELS 6 Xposition Yposition Zposition Zrotation Xrotation Yrotation
                      End Site
                      {
                        OFFSET 0.4919 -1.6479 0.2673
                      }
                    }
                  }
                }
                JOINT RightFinger2
                {
                  OFFSET -0.916 -9.2044 0.2193
                  CHANNELS 6 Xposition Yposition Zposition Zrotation Xrotation Yrotation
                  JOINT RightFinger21
                  {
                    OFFSET -0.0117 -4.1944 -0.0248
                    CHANNELS 6 Xposition Yposition Zposition Zrotation Xrotation Yrotation
                    JOINT RightFinger22
                    {
                      OFFSET -0.0071 -2.3249 -0.0142
                      CHANNELS 6 Xposition Yposition Zposition Zrotation Xrotation Yrotation
                      End Site
                      {
                        OFFSET 0.1475 -2.0882 0.0028
                      }
                    }
                  }
                }
                JOINT RightFinger3
                {
                  OFFSET -0.6113 -8.7231 -2.0637
                  CHANNELS 6 Xposition Yposition Zposition Zrotation Xrotation Yrotation
                  JOINT RightFinger31
                  {
                    OFFSET 0.1927 -3.8059 -0.2383
                    CHANNELS 6 Xposition Yposition Zposition Zrotation Xrotation Yrotation
                    JOINT RightFinger32
                    {
                      OFFSET 0.1091 -2.1688 -0.1362
                      CHANNELS 6 Xposition Yposition Zposition Zrotation Xrotation Yrotation
                      End Site
                      {
                        OFFSET 0.2358 -1.9176 -0.0906
                      }
                    }
                  }
                }
                JOINT RightFinger4
                {
                  OFFSET 0.6151 -8.0947 -3.564
                  CHANNELS 6 Xposition Yposition Zposition Zrotation Xrotation Yrotation
                  JOINT RightFinger41
                  {
                    OFFSET 0.4882 -2.341 -0.6462
                    CHANNELS 6 Xposition Yposition Zposition Zrotation Xrotation Yrotation
                    JOINT RightFinger42
                    {
                      OFFSET 0.3574 -1.7166 -0.4742
                      CHANNELS 6 Xposition Yposition Zposition Zrotation Xrotation Yrotation
                      End Site
                      {
                        OFFSET 0.4187 -1.5237 -0.3496
                      }
                    }
                  }
                }
                JOINT RightFinger0
                {
                  OFFSET 1.4199 -1.8761 1.4221
                  CHANNELS 6 Xposition Yposition Zposition Zrotation Xrotation Yrotation
                  JOINT RightFinger01
                  {
                    OFFSET 1.1472 -3.4929 2.6336
                    CHANNELS 6 Xposition Yposition Zposition Zrotation Xrotation Yrotation
                    JOINT RightFinger02
                    {
                      OFFSET 0.8229 -2.3 1.6571
                      CHANNELS 6 Xposition Yposition Zposition Zrotation Xrotation Yrotation
                      End Site
                      {
                        OFFSET 0.5822 -1.6914 1.1582
                      }
                    }
                  }
                }
              }
            }
          }
        }
      }
    }
  }
  JOINT RightHip
  {
    OFFSET -9.412 3.9771 -0.7758
    CHANNELS 6 Xposition Yposition Zposition Zrotation Xrotation Yrotation
    JOINT RightKnee
    {
      OFFSET -0.7531 -40.938 0
      CHANNELS 6 Xposition Yposition Zposition Zrotation Xrotation Yrotation
      JOINT RightAnkle
      {
        OFFSET 0 -40.1986 0
        CHANNELS 6 Xposition Yposition Zposition Zrotation Xrotation Yrotation
        JOINT RightToe
        {
          OFFSET 0 -4.4182 9.239
          CHANNELS 6 Xposition Yposition Zposition Zrotation Xrotation Yrotation
          End Site
          {
            OFFSET 0 0 6.1981
          }
        }
      }
    }
  }
  JOINT LeftHip
  {
    OFFSET 9.4119 3.9773 -0.7758
    CHANNELS 6 Xposition Yposition Zposition Zrotation Xrotation Yrotation
    JOINT LeftKnee
    {
      OFFSET 0.7532 -40.9383 0
      CHANNELS 6 Xposition Yposition Zposition Zrotation Xrotation Yrotation
      JOINT LeftAnkle
      {
        OFFSET 0 -40.1986 0
        CHANNELS 6 Xposition Yposition Zposition Zrotation Xrotation Yrotation
        JOINT LeftToe
        {
          OFFSET 0 -4.4182 9.239
          CHANNELS 6 Xposition Yposition Zposition Zrotation Xrotation Yrotation
          End Site
          {
            OFFSET 0 0 6.1981
          }
        }
      }
    }
  }
}
MOTION
Frames:	4
Frame Time:	0.0333333
5.72205e-005 65.662 3.42586 0 0 -0 0 8.7983 -4.7612 0 0 -0 0 8.0291 0.4195 0 0 -0 0 9.9351 -2.2114 0 0 -0 0 22.3885 -0.4656 0 0 -0 -0.0001 12.643 3.4389 0 0 -0 2.2603 21.606 7.4023 0 0 -12.5014 13.5163 -1.1332 -5.0146 88.1196 14.2451 10.6914 -0.0995 -28.05 -0.2431 -0.00160068 -0.00239207 0.000740045 0.0679 -23.3996 -0.1402 -8.4365e-005 7.00714e-005 -9.52055e-007 0.7932 -9.069 2.5189 9.93923e-017 -1.98785e-016 -1.59028e-015 -0.8272 -3.3923 0.5977 9.93923e-017 -5.96354e-016 -1.59028e-015 -0.5649 -2.3158 0.4082 -9.93923e-017 -5.96354e-016 -1.59028e-015 0.9159 -9.2044 0.2193 9.93923e-017 -1.98785e-016 -1.59028e-015 0.0117 -4.1944 -0.0248 -0.0128176 0.00232552 8.52707e-005 0.0071 -2.3249 -0.0142 9.93923e-017 5.96354e-016 -0 0.6113 -8.7231 -2.0637 9.93923e-017 -1.98785e-016 -1.59028e-015 -0.1927 -3.8059 -0.2383 -0.0160551 0.00299681 0.000857156 -0.1091 -2.1688 -0.1362 -2.48481e-016 0 3.18055e-015 -0.6151 -8.0947 -3.5641 9.93923e-017 -1.98785e-016 -1.59028e-015 -0.4882 -2.341 -0.6462 -0.0125865 0.0031206 0.00282719 -0.3575 -1.7167 -0.4742 0 1.98785e-016 -0 -1.42 -1.8761 1.4223 9.93923e-017 -1.98785e-016 -1.59028e-015 -1.1471 -3.4929 2.6334 9.93923e-017 -5.96354e-016 -1.59028e-015 -0.823 -2.3 1.6571 -9.93923e-017 -5.96354e-016 -1.59028e-015 -2.2603 21.606 7.4023 -0.865644 0.16582 7.03859 -13.5187 -1.1334 -5.0155 -88.0329 10.2057 -10.5567 0.0994 -28.0499 -0.2431 0.0015593 -0.00248883 -0.000788628 -0.0679 -23.3996 -0.1402 7.87605e-005 4.10553e-005 1.24965e-005 -0.7932 -9.0691 2.5189 -3.97569e-016 -7.95139e-016 3.18055e-015 0.8272 -3.3923 0.5977 -1.98785e-016 -3.97569e-016 3.18055e-015 0.565 -2.3158 0.4082 -1.98785e-016 0 3.18055e-015 -0.916 -9.2044 0.2193 -3.97569e-016 -7.95139e-016 3.18055e-015 -0.0117 -4.1944 -0.0248 0.0129473 0.00231697 -8.70038e-005 -0.0071 -2.3249 -0.0142 9.93923e-017 -7.95139e-016 1.59028e-015 -0.6113 -8.7231 -2.0637 -3.97569e-016 -7.95139e-016 3.18055e-015 0.1927 -3.8059 -0.2383 0.0163314 0.00303369 -0.000872333 0.1091 -2.1688 -0.1362 3.97569e-016 7.95139e-016 -3.18055e-015 0.6151 -8.0947 -3.564 -3.97569e-016 -7.95139e-016 3.18055e-015 0.4882 -2.341 -0.6462 0.0145763 0.00367772 -0.00326275 0.3574 -1.7166 -0.4742 9.93923e-017 -3.97569e-016 -0 1.4199 -1.8761 1.4221 -3.97569e-016 -7.95139e-016 3.18055e-015 1.1472 -3.4929 2.6336 -1.98785e-016 -3.97569e-016 3.18055e-015 0.8229 -2.3 1.6571 -1.98785e-016 0 3.18055e-015 -9.412 3.9771 -0.7758 3.42482 1.32465 -0.0626183 -0.7531 -40.938 0 0.000117508 0.717283 0.000978199 0 -40.1986 0 -3.4257 -2.04197 -0.0604716 8.88178e-016 -4.4182 9.239 6.47761e-025 0 -0 9.4119 3.9773 -0.7758 -3.42483 1.34017 0.0627307 0.7532 -40.9383 -2.22045e-016 -0.000193936 0.682302 -0.0013703 -8.88179e-016 -40.1986 0 3.42574 -2.02253 0.0595886 -8.88178e-016 -4.4182 9.239 -8.45714e-024 0 -7.40531e-025 
14.8028 39.604 8.2033 5.41167e-010 -24.7609 1.39094e-008 0 8.7983 -4.7612 -0.0243523 1.61141 -0.0409624 1.77636e-015 8.0291 0.4195 -0.0475798 3.22284 -0.0812875 0 9.9351 -2.2114 -0.0475796 3.22282 -0.0812873 0 22.3885 -0.4656 2.71614e-007 1.87055 3.96519e-007 -0.0001 12.643 3.4389 -1.02865e-008 0.756455 -6.52362e-008 2.2603 21.606 7.4023 0.625404 -3.24737 -11.479 13.5163 -1.1332 -5.0146 68.2431 21.1697 12.8134 -0.0995 -28.05 -0.2431 0.973508 -11.184 -10.6189 0.0679 -23.3996 -0.1402 -6.20036 -12.904 -5.01539 0.7932 -9.069 2.5189 4.44088e-006 -1.62474e-006 -2.32348e-006 -0.8272 -3.3923 0.5977 1.59028e-015 -1.74523e-006 -1.59028e-015 -0.5649 -2.3158 0.4082 4.77083e-015 -1.24724e-006 -0 0.9159 -9.2044 0.2193 4.44088e-006 -1.62474e-006 -2.32348e-006 0.0117 -4.1944 -0.0248 -0.0128214 0.0023226 8.9923e-005 0.0071 -2.3249 -0.0142 1.88831e-005 -8.44826e-006 -2.8427e-006 0.6113 -8.7231 -2.0637 4.44088e-006 -1.62474e-006 -2.32348e-006 -0.1927 -3.8059 -0.2383 -0.0161161 0.00301114 0.000861168 -0.1091 -2.1688 -0.1362 -8.4648e-006 2.41141e-006 2.04673e-006 -0.6151 -8.0947 -3.5641 4.44088e-006 -1.62474e-006 -2.32348e-006 -0.4882 -2.341 -0.6462 -0.0126511 0.00313756 0.00284308 -0.3575 -1.7167 -0.4742 1.12866e-006 -3.0567e-006 -4.41733e-006 -1.42 -1.8761 1.4223 4.44088e-006 -1.62474e-006 -2.32348e-006 -1.1471 -3.4929 2.6334 1.59028e-015 -1.74523e-006 -1.59028e-015 -0.823 -2.3 1.6571 4.77083e-015 -1.24724e-006 -0 -2.2603 21.606 7.4023 -6.86129 7.66365 1.26787 -13.5187 -1.1334 -5.0155 -63.2342 19.062 -12.0829 0.0994 -28.0499 -0.2431 -0.221241 -24.0507 9.65347 -0.0679 -23.3996 -0.1402 5.32463 -13.1416 4.48922 -0.7932 -9.0691 2.5189 -6.24819e-007 -1.23661e-006 1.47366e-006 0.8272 -3.3923 0.5977 6.24819e-007 1.23661e-006 -1.47366e-006 0.565 -2.3158 0.4082 -6.24819e-007 -1.23661e-006 1.47366e-006 -0.916 -9.2044 0.2193 -6.24819e-007 -1.23661e-006 1.47366e-006 -0.0117 -4.1944 -0.0248 0.0129482 0.00231783 -8.51033e-005 -0.0071 -2.3249 -0.0142 7.95139e-016 6.36111e-015 -7.95139e-016 -0.6113 -8.7231 -2.0637 -6.24819e-007 -1.23661e-006 1.47366e-006 0.1927 -3.8059 -0.2383 0.0163481 0.00303926 -0.000875561 0.1091 -2.1688 -0.1362 7.17038e-006 -5.66545e-007 6.87291e-007 0.6151 -8.0947 -3.564 -6.24819e-007 -1.23661e-006 1.47366e-006 0.4882 -2.341 -0.6462 0.0145985 0.00368716 -0.0032668 0.3574 -1.7166 -0.4742 3.01307e-007 3.18055e-015 7.94726e-007 1.4199 -1.8761 1.4221 -6.24819e-007 -1.23661e-006 1.47366e-006 1.1472 -3.4929 2.6336 6.24819e-007 1.23661e-006 -1.47366e-006 0.8229 -2.3 1.6571 -6.24819e-007 -1.23661e-006 1.47366e-006 -9.412 3.9771 -0.7758 -16.4721 -22.6083 -13.8637 -0.7531 -40.938 0 1.14216 45.1414 -2.80793 0 -40.1986 0 -8.25033 12.9445 19.3908 1.77636e-015 -4.4182 9.239 -8.17398e-007 -8.53257e-007 -2.19843e-007 9.4119 3.9773 -0.7758 13.0041 -10.3984 -8.91136 0.7532 -40.9383 3.55271e-015 -2.09198 9.27887 0.211768 -7.10543e-015 -40.1986 -7.10543e-015 5.59664 0.62948 14.2384 -7.10543e-015 -4.4182 9.239 -7.58921e-007 3.12875e-006 3.19207e-007 
29.6426 15.0804 11.5062 -3.85679e-008 -49.5218 -8.12861e-008 0 8.7983 -4.7612 -0.0390241 3.22271 -0.0863178 -3.55271e-015 8.0291 0.4195 -0.0733509 6.44545 -0.17084 0 9.9351 -2.2114 -0.0733509 6.44547 -0.17084 0 22.3885 -0.4656 -4.32612e-007 3.74119 -1.07473e-006 -0.0001 12.643 3.4389 -2.78816e-008 1.51292 4.48635e-008 2.2603 21.606 7.4023 1.36735 -6.49155 -10.4468 13.5163 -1.1332 -5.0146 47.4449 26.7189 14.8168 -0.0995 -28.05 -0.2431 1.83857 -22.4204 -21.5081 0.0679 -23.3996 -0.1402 -12.7788 -25.7706 -10.5811 0.7932 -9.069 2.5189 -6.36111e-015 9.54166e-015 8.74653e-015 -0.8272 -3.3923 0.5977 -3.18055e-015 3.18055e-015 5.56597e-015 -0.5649 -2.3158 0.4082 -3.97569e-015 9.54166e-015 5.56597e-015 0.9159 -9.2044 0.2193 -6.36111e-015 9.54166e-015 8.74653e-015 0.0117 -4.1944 -0.0248 -0.0128018 0.00233659 9.02806e-005 0.0071 -2.3249 -0.0142 2.38542e-015 1.59028e-014 -2.38542e-015 0.6113 -8.7231 -2.0637 -6.36111e-015 9.54166e-015 8.74653e-015 -0.1927 -3.8059 -0.2383 -0.0161166 0.00301129 0.000865469 -0.1091 -2.1688 -0.1362 7.95139e-016 -6.36111e-015 -8.74653e-015 -0.6151 -8.0947 -3.5641 -6.36111e-015 9.54166e-015 8.74653e-015 -0.4882 -2.341 -0.6462 -0.0125645 0.00312588 0.00282255 -0.3575 -1.7167 -0.4742 5.56597e-015 -1.27222e-014 -4.77083e-015 -1.42 -1.8761 1.4223 -6.36111e-015 9.54166e-015 8.74653e-015 -1.1471 -3.4929 2.6334 -3.18055e-015 3.18055e-015 5.56597e-015 -0.823 -2.3 1.6571 -3.97569e-015 9.54166e-015 5.56597e-015 -2.2603 21.606 7.4023 -11.3029 14.9262 -4.80652 -13.5187 -1.1334 -5.0155 -37.6703 26.7722 -13.3398 0.0994 -28.0499 -0.2431 1.32725 -48.0383 21.7075 -0.0679 -23.3996 -0.1402 11.0228 -26.2511 9.51516 -0.7932 -9.0691 2.5189 -5.4074e-006 -1.22034e-005 1.05346e-005 0.8272 -3.3923 0.5977 4.19639e-008 -8.62944e-006 -4.95121e-006 0.565 -2.3158 0.4082 5.28151e-006 3.85329e-006 4.31906e-006 -0.916 -9.2044 0.2193 -5.4074e-006 -1.22034e-005 1.05346e-005 -0.0117 -4.1944 -0.0248 0.0129587 0.00232432 -9.91679e-005 -0.0071 -2.3249 -0.0142 7.5155e-007 -2.6046e-006 5.76679e-006 -0.6113 -8.7231 -2.0637 -5.4074e-006 -1.22034e-005 1.05346e-005 0.1927 -3.8059 -0.2383 0.0163291 0.00303321 -0.000878132 0.1091 -2.1688 -0.1362 4.79424e-006 -3.36565e-006 -8.96158e-007 0.6151 -8.0947 -3.564 -5.4074e-006 -1.22034e-005 1.05346e-005 0.4882 -2.341 -0.6462 0.0146069 0.00368931 -0.00327346 0.3574 -1.7166 -0.4742 2.08202e-006 -1.94458e-006 5.39911e-006 1.4199 -1.8761 1.4221 -5.4074e-006 -1.22034e-005 1.05346e-005 1.1472 -3.4929 2.6336 4.19639e-008 -8.62944e-006 -4.95121e-006 0.8229 -2.3 1.6571 5.28151e-006 3.85329e-006 4.31906e-006 -9.412 3.9771 -0.7758 -50.4562 -40.8724 -34.8524 -0.7531 -40.938 0 31.741 85.7874 -34.2814 0 -40.1986 -7.10543e-015 -25.9223 23.0012 42.7271 1.77636e-015 -4.4182 9.239 6.80247e-008 8.44526e-009 -2.02251e-007 9.4119 3.9773 -0.7758 25.635 -20.2285 -18.7578 0.7532 -40.9383 0 -3.97152 15.9455 0.147143 7.10543e-015 -40.1986 7.10543e-015 6.83856 3.60616 28.4309 0 -4.4182 9.239 8.50574e-007 2.26259e-006 -1.43001e-006 
40.156 -1.52562 12.6068 -1.09569e-009 -67.0038 1.26928e-008 7.10543e-015 8.7983 -4.7612 -0.0431566 4.35903 -0.12034 0 8.0291 0.4195 -0.0774377 8.71812 -0.238415 0 9.9351 -2.2114 -0.0774379 8.71816 -0.238416 0 22.3885 -0.4656 5.05626e-008 4.9972 3.5863e-007 -0.0001 12.643 3.4389 -4.45847e-008 1.9987 1.30983e-007 2.2603 21.606 7.4023 2.03071 -8.70348 -9.67542 13.5163 -1.1332 -5.0146 32.5121 29.8899 15.9157 -0.0995 -28.05 -0.2431 2.27182 -30.4247 -29.348 0.0679 -23.3996 -0.1402 -17.8992 -34.6344 -15.007 0.7932 -9.069 2.5189 -3.97569e-016 1.59028e-015 1.27222e-014 -0.8272 -3.3923 0.5977 3.97569e-016 6.36111e-015 1.49089e-016 -0.5649 -2.3158 0.4082 -3.97569e-016 3.18055e-015 4.47266e-016 0.9159 -9.2044 0.2193 -3.97569e-016 1.59028e-015 1.27222e-014 0.0117 -4.1944 -0.0248 -0.012848 0.00232828 7.92605e-005 0.0071 -2.3249 -0.0142 -1.59028e-015 3.18055e-015 -4.57205e-015 0.6113 -8.7231 -2.0637 -3.97569e-016 1.59028e-015 1.27222e-014 -0.1927 -3.8059 -0.2383 -0.0160348 0.00298752 0.000848332 -0.1091 -2.1688 -0.1362 4.82771e-032 1.59028e-015 -1.73937e-015 -0.6151 -8.0947 -3.5641 -3.97569e-016 1.59028e-015 1.27222e-014 -0.4882 -2.341 -0.6462 -0.012563 0.00311033 0.00281974 -0.3575 -1.7167 -0.4742 1.59028e-015 0 7.7526e-015 -1.42 -1.8761 1.4223 -3.97569e-016 1.59028e-015 1.27222e-014 -1.1471 -3.4929 2.6334 3.97569e-016 6.36111e-015 1.49089e-016 -0.823 -2.3 1.6571 -3.97569e-016 3.18055e-015 4.47266e-016 -2.2603 21.606 7.4023 -13.5767 19.7831 -9.36703 -13.5187 -1.1334 -5.0155 -19.4931 31.6772 -13.8525 0.0994 -28.0499 -0.2431 6.93082 -64.6031 34.8226 -0.0679 -23.3996 -0.1402 15.5469 -35.3175 13.5607 -0.7932 -9.0691 2.5189 3.97569e-016 -3.18055e-015 3.08116e-015 0.8272 -3.3923 0.5977 -6.46472e-006 -1.0502e-005 2.09485e-006 0.565 -2.3158 0.4082 7.95139e-016 -4.77083e-015 5.06901e-015 -0.916 -9.2044 0.2193 3.97569e-016 -3.18055e-015 3.08116e-015 -0.0117 -4.1944 -0.0248 0.0129387 0.00231162 -8.45339e-005 -0.0071 -2.3249 -0.0142 -7.95139e-016 1.43125e-014 -9.93923e-016 -0.6113 -8.7231 -2.0637 3.97569e-016 -3.18055e-015 3.08116e-015 0.1927 -3.8059 -0.2383 0.0163298 0.00302986 -0.000868639 0.1091 -2.1688 -0.1362 2.57087e-006 7.62814e-006 -9.74168e-006 0.6151 -8.0947 -3.564 3.97569e-016 -3.18055e-015 3.08116e-015 0.4882 -2.341 -0.6462 0.014587 0.00368169 -0.00325945 0.3574 -1.7166 -0.4742 -7.95139e-016 -3.18055e-015 -4.67144e-015 1.4199 -1.8761 1.4221 3.97569e-016 -3.18055e-015 3.08116e-015 1.1472 -3.4929 2.6336 -6.46472e-006 -1.0502e-005 2.09485e-006 0.8229 -2.3 1.6571 7.95139e-016 -4.77083e-015 5.06901e-015 -9.412 3.9771 -0.7758 -84.4547 -46.5924 -55.8785 -0.7531 -40.938 5.32907e-015 172.915 65.8942 -175.099 0 -40.1986 3.55271e-015 -43.8507 23.2821 60.3819 -8.88179e-016 -4.4182 9.239 8.23093e-016 -3.18055e-015 -2.60905e-016 9.4119 3.9773 -0.7758 31.3561 -26.4275 -26.887 0.7532 -40.9383 3.55271e-015 -4.75795 22.3149 -0.0456939 -7.10543e-015 -40.1986 -1.06581e-014 7.2844 4.20873 38.4347 0 -4.4182 9.239 3.18055e-015 -3.18055e-015 1.59028e-015 
